<!-- Icon 128x128 -->
<svg width="128" height="128" viewBox="0 0 128 128" xmlns="http://www.w3.org/2000/svg">
  <defs>
    <linearGradient id="grad4" x1="0%" y1="0%" x2="100%" y2="100%">
      <stop offset="0%" style="stop-color:#ff6b6b;stop-opacity:1" />
      <stop offset="100%" style="stop-color:#feca57;stop-opacity:1" />
    </linearGradient>
    <filter id="shadow">
      <feDropShadow dx="2" dy="2" stdDeviation="3" flood-opacity="0.3"/>
    </filter>
  </defs>
  <rect width="128" height="128" rx="20" fill="url(#grad4)" filter="url(#shadow)"/>
  <circle cx="64" cy="64" r="45" fill="rgba(255,255,255,0.1)" stroke="rgba(255,255,255,0.3)" stroke-width="2"/>
  <circle cx="64" cy="64" r="30" fill="rgba(255,255,255,0.05)" stroke="rgba(255,255,255,0.2)" stroke-width="1"/>
  
  <!-- Shopping cart icon -->
  <g transform="translate(45, 35)">
    <path d="M2 2h4l2.68 13.39a1 1 0 0 0 1 .84h18.64a1 1 0 0 0 1-.84L32 8H10" 
          stroke="white" stroke-width="2" fill="none" stroke-linecap="round" stroke-linejoin="round"/>
    <circle cx="12" cy="32" r="2" stroke="white" stroke-width="2" fill="white"/>
    <circle cx="26" cy="32" r="2" stroke="white" stroke-width="2" fill="white"/>
  </g>
  
  <!-- Music notes -->
  <g transform="translate(75, 75)">
    <circle cx="0" cy="0" r="3" fill="white"/>
    <rect x="3" y="-15" width="2" height="15" fill="white"/>
    <ellipse cx="8" cy="-12" rx="4" ry="2" fill="white"/>
  </g>
  
  <g transform="translate(85, 65)">
    <circle cx="0" cy="0" r="2" fill="rgba(255,255,255,0.8)"/>
    <rect x="2" y="-10" width="1.5" height="10" fill="rgba(255,255,255,0.8)"/>
  </g>
</svg>